<mxfile host="app.diagrams.net" modified="2022-03-07T02:09:04.935Z" agent="5.0 (Macintosh; Intel Mac OS X 10_15_7) AppleWebKit/537.36 (KHTML, like Gecko) Chrome/98.0.4758.102 Safari/537.36 Edg/98.0.1108.62" etag="thCXTJ7Y2tE6-6TmztR2" version="16.6.4" type="github">
  <diagram id="-rE4dPDjfQ0b-NHY1klk" name="Page-1">
    <mxGraphModel dx="2020" dy="1882" grid="1" gridSize="10" guides="1" tooltips="1" connect="1" arrows="1" fold="1" page="1" pageScale="1" pageWidth="1654" pageHeight="1169" math="0" shadow="0">
      <root>
        <mxCell id="0" />
        <mxCell id="1" parent="0" />
        <mxCell id="1dDEqTwwtwnoAVEfWgDr-1" value="" style="rounded=0;whiteSpace=wrap;html=1;" parent="1" vertex="1">
          <mxGeometry x="380" y="270" width="120" height="60" as="geometry" />
        </mxCell>
        <mxCell id="1dDEqTwwtwnoAVEfWgDr-2" value="" style="ellipse;whiteSpace=wrap;html=1;aspect=fixed;" parent="1" vertex="1">
          <mxGeometry x="340" y="470" width="80" height="80" as="geometry" />
        </mxCell>
        <mxCell id="1dDEqTwwtwnoAVEfWgDr-3" value="" style="shape=cylinder3;whiteSpace=wrap;html=1;boundedLbl=1;backgroundOutline=1;size=15;" parent="1" vertex="1">
          <mxGeometry x="160" y="300" width="60" height="80" as="geometry" />
        </mxCell>
        <mxCell id="T7Sn7fT6ZJoRVqsNO8Tg-1" value="" style="ellipse;whiteSpace=wrap;html=1;" vertex="1" parent="1">
          <mxGeometry x="270" y="350" width="120" height="80" as="geometry" />
        </mxCell>
        <mxCell id="T7Sn7fT6ZJoRVqsNO8Tg-2" value="" style="ellipse;shape=cloud;whiteSpace=wrap;html=1;" vertex="1" parent="1">
          <mxGeometry x="230" y="210" width="120" height="80" as="geometry" />
        </mxCell>
        <mxCell id="T7Sn7fT6ZJoRVqsNO8Tg-3" value="" style="shape=callout;whiteSpace=wrap;html=1;perimeter=calloutPerimeter;" vertex="1" parent="1">
          <mxGeometry x="700" y="500" width="120" height="80" as="geometry" />
        </mxCell>
        <mxCell id="T7Sn7fT6ZJoRVqsNO8Tg-4" value="Actor" style="shape=umlActor;verticalLabelPosition=bottom;verticalAlign=top;html=1;outlineConnect=0;" vertex="1" parent="1">
          <mxGeometry x="40" y="1040" width="30" height="60" as="geometry" />
        </mxCell>
        <mxCell id="T7Sn7fT6ZJoRVqsNO8Tg-5" value="" style="shape=cube;whiteSpace=wrap;html=1;boundedLbl=1;backgroundOutline=1;darkOpacity=0.05;darkOpacity2=0.1;" vertex="1" parent="1">
          <mxGeometry x="1430" y="990" width="120" height="80" as="geometry" />
        </mxCell>
        <mxCell id="T7Sn7fT6ZJoRVqsNO8Tg-6" value="" style="triangle;whiteSpace=wrap;html=1;" vertex="1" parent="1">
          <mxGeometry x="1530" y="50" width="60" height="80" as="geometry" />
        </mxCell>
        <mxCell id="T7Sn7fT6ZJoRVqsNO8Tg-7" value="" style="shape=hexagon;perimeter=hexagonPerimeter2;whiteSpace=wrap;html=1;fixedSize=1;" vertex="1" parent="1">
          <mxGeometry x="50" y="50" width="120" height="80" as="geometry" />
        </mxCell>
      </root>
    </mxGraphModel>
  </diagram>
</mxfile>
